<svg width="300" height="178" viewBox="0 0 300 178" fill="none" xmlns="http://www.w3.org/2000/svg">
<g id="Asset">
<rect id="Rectangle" y="105.833" width="300" height="71.6667" fill="#F0F2F5"/>
<path id="Fill 3" fill-rule="evenodd" clip-rule="evenodd" d="M64.6647 73.5582L55.1594 78.4179V87.8656H33.0535V93.0262H27.6636V105.494H18.1418V77.0935H13.1166V74.2351L0.0328858 74.1941C0.07744 85.8666 -0.0679476 114.255 0.0422656 120.278C0.0727501 121.729 0.0328858 127.072 0.0328858 127.072L7.64932 127.187L11.7882 127.25L13.3511 127.273L18.9825 127.359L20.06 127.375H20.1315L21.0144 127.383L26.7303 126.889H26.7385L29.0506 126.693L30.5033 126.568L30.9875 126.527L31.7297 126.465L34.9329 126.19L35.8768 126.113L36.2919 126.074L37.7598 125.948L38.0412 125.924L38.7974 125.861L39.1023 125.831L44.0314 125.407L44.6024 125.359L45.0397 125.32L50.9361 124.818L52.2399 124.709L58.1457 124.198L58.9805 124.129L60.2468 123.721L73.069 118.019L73.1593 77.5268L64.6647 73.5582Z" fill="#BBCAC0"/>
<path id="Fill 5" fill-rule="evenodd" clip-rule="evenodd" d="M290.138 21.2633C290.028 22.2353 289.933 88.5832 289.819 89.5891C288.928 89.6336 288.105 89.5996 287.311 89.7296C284.708 90.1535 283.979 89.0785 284.192 86.7599C284.396 84.5432 284.236 82.2972 284.236 80.1484C282.973 79.9201 282.104 79.7632 281.11 79.5828C281.11 76.3356 281.039 73.2208 281.143 70.1106C281.186 68.7768 280.677 68.1292 279.355 67.7744C276.25 66.9395 273.351 67.0414 270.573 68.819C267.588 70.7289 264.498 72.4959 260.964 74.6189V3.43129H253.242C253.357 3.24041 251.536 0.363259 250.351 0.211028C247.367 -0.173061 244.288 0.0845598 240.934 0.0845598V81.8792H231.323V67.4618C231.323 58.7284 231.334 30.1114 231.303 21.3781C231.3 20.6521 231.193 19.8253 230.812 19.2258C230.305 18.4201 229.485 17.7913 228.614 16.8967H214.811V34.4383C213.555 34.5952 212.61 34.7123 211.501 34.8517V81.7492C210.586 81.9939 209.839 82.193 208.93 82.4366V87.1826H202.046C202.046 89.4204 202.13 91.3655 201.999 93.2988C201.953 93.9733 201.374 94.6162 201.038 95.2731C200.678 94.6279 200.014 93.9862 200.007 93.3363C199.93 86.4742 199.964 79.6133 199.953 72.7512C199.953 71.9327 199.881 71.1118 199.832 70.0942H187.642V61.6384C186.056 61.0025 183.845 62.177 183.476 59.8057C183.462 59.7109 183.041 59.6149 182.81 59.6137C179.94 59.6008 177.07 59.6055 174.237 59.6055C174.096 60.6746 173.998 61.417 173.877 62.3445H169.318V80.577C168.296 80.4974 167.604 80.4435 166.743 80.3756V77.4176C166.743 64.6291 166.767 60.0376 166.732 47.2502C166.714 40.8765 164.551 38.6188 158.214 38.1223C158.08 38.1129 157.959 37.9607 157.575 37.7007V32.9453C153.173 32.882 149.704 34.2064 147.887 37.7874C146.89 39.7535 146.379 42.1154 146.351 44.3052C146.206 56 146.285 59.5001 146.286 71.1973C146.287 72.1048 146.286 73.0135 146.286 74.0978C145.08 74.0358 144.223 73.9925 143.316 73.9468C143.159 72.1411 143.022 70.5766 142.86 68.7253C141.045 70.8998 141.592 70.271 138.357 74.6084C138.108 75.4187 137.892 76.1213 137.699 76.7525C136.791 76.8755 136.079 76.9727 135.076 77.1085V83.6286H132.021V51.2481H120.557C120.432 52.0795 120.329 52.7587 120.183 53.7165C115.628 53.7165 109.028 53.6252 104.295 53.6252C104.175 61.7356 103.954 66.5238 103.954 69.449C97.1382 70.6703 99.7434 77.6179 99.0306 80.1121C98.646 79.7468 96.7888 79.8756 96.7888 79.8756C96.7888 79.8756 96.7102 68.7136 96.7349 66.936C95.5483 66.936 88.6905 66.7393 87.9975 66.8528C85.4321 67.2721 82.9207 67.9794 80.1173 68.6433V86.5491H80.0505V131.161H300V21.2633H290.138Z" fill="#BBCAC0"/>
<path id="Fill 7" fill-rule="evenodd" clip-rule="evenodd" d="M183.84 46.9316C181.359 46.0756 178.716 45.7876 176.109 46.0955C161.196 47.8509 146.998 49.9212 154.031 50.5957C160.77 51.2421 189.015 51.4611 195.687 51.5044C195.95 51.5068 196.013 51.1367 195.763 51.0512L183.84 46.9316Z" fill="#FEFEFE"/>
<path id="Fill 12" fill-rule="evenodd" clip-rule="evenodd" d="M42.1167 131.316L34.6949 121.373L29.5922 119.737L10.6297 123.216L0 130.502L0.0199322 132.287L18.2954 135.157L33.5599 134.15L42.1167 131.316Z" fill="#575770"/>
<path id="Fill 14" fill-rule="evenodd" clip-rule="evenodd" d="M195.64 119.267V117.373H198.012C200.647 117.373 203.331 117.363 206.07 117.334L208.908 117.305C209.14 117.295 209.419 117.295 209.687 117.295C210.512 117.277 211.37 117.267 212.226 117.258C216.369 117.192 220.599 117.106 224.849 117.001C236.919 116.698 250.217 116.212 265.504 115.515C266.481 115.472 267.444 115.425 268.398 115.381L270.535 115.279C271.834 115.22 273.113 115.155 274.362 115.089L277.93 114.914C278.324 114.896 278.718 114.878 279.103 114.852L282.487 114.682C285.645 114.511 288.606 114.35 291.348 114.198C293.641 114.074 295.777 113.951 297.731 113.837L300 113.716V115.575L297.841 115.73C295.885 115.842 293.745 115.967 291.451 116.09C288.71 116.241 285.749 116.403 282.588 116.574L279.214 116.746C278.831 116.771 278.423 116.79 278.014 116.807L274.458 116.983C273.207 117.048 271.923 117.115 270.619 117.172L268.489 117.273C267.533 117.32 266.569 117.366 265.591 117.409C250.291 118.106 236.979 118.593 224.896 118.898C220.64 119.002 216.405 119.088 212.253 119.154C211.397 119.163 210.549 119.173 209.709 119.192C209.441 119.192 209.187 119.192 208.942 119.199L206.079 119.23C203.344 119.258 200.655 119.267 198.012 119.267H195.64Z" fill="#F1F3F4"/>
<path id="Fill 16" fill-rule="evenodd" clip-rule="evenodd" d="M223.918 131.31H225.817V117.662H223.918V131.31Z" fill="#F1F3F4"/>
<path id="Fill 18" fill-rule="evenodd" clip-rule="evenodd" d="M269.631 131.154H271.53V116.335H269.631V131.154Z" fill="#F1F3F4"/>
<path id="Fill 19" fill-rule="evenodd" clip-rule="evenodd" d="M300 131.396V126.817L208.271 128.961L209.246 131.311L300 131.396Z" fill="#3B3B4F"/>
<path id="Fill 20" fill-rule="evenodd" clip-rule="evenodd" d="M236.758 147.629L232.862 150.634L169.334 150.782L173.949 147.772L236.758 147.629Z" fill="#F1F3F4"/>
<path id="Fill 21" fill-rule="evenodd" clip-rule="evenodd" d="M296.706 146.776C296.44 148.14 296.156 149.457 295.851 150.718L279.168 150.756H277.868L269.175 150.776L271.243 146.832L277.868 146.813H279.168L296.706 146.776Z" fill="#F1F3F4"/>
<path id="Fill 22" fill-rule="evenodd" clip-rule="evenodd" d="M16.5382 133.06C16.3108 133.135 16.7094 132.813 17.2499 132.51C16.8701 132.889 16.6426 132.993 16.5382 133.06ZM190.072 131.155C187.716 131.349 185.356 131.6 182.995 131.894C181.4 132.083 179.806 132.302 178.212 132.529H178.126C177.225 132.662 176.352 132.794 175.45 132.937C168.199 134.026 160.938 135.278 153.736 136.093C153.611 136.112 153.488 136.13 153.365 136.141C152.007 136.292 150.651 136.424 149.303 136.539C148.809 136.586 148.307 136.623 147.813 136.662C146.721 136.746 145.63 136.813 144.539 136.861H144.529C143.846 136.898 143.153 136.928 142.46 136.937C141.929 136.955 141.396 136.975 140.865 136.975C139.982 136.993 139.11 136.993 138.227 136.975C136.728 136.955 135.228 136.928 133.738 136.898C133.188 136.889 132.638 136.88 132.087 136.87C131.385 136.861 130.692 136.841 130 136.822C129.544 136.822 129.088 136.813 128.641 136.794C127.464 136.775 126.288 136.746 125.112 136.709C124.675 136.699 124.237 136.69 123.801 136.671C121.78 136.614 119.768 136.557 117.756 136.482C117.471 136.472 117.177 136.462 116.893 136.452C116.541 136.435 116.18 136.424 115.829 136.415C103.653 135.951 91.5813 135.183 79.765 133.884H79.7181C79.6126 133.864 79.5083 133.856 79.4039 133.847L75.8173 133.449L74.0222 133.25L72.2483 132.993L65.197 131.96C64.3985 131.847 63.6118 131.714 62.8332 131.572H62.8239C62.4639 131.505 62.1122 131.438 61.7698 131.372C61.3969 131.3 61.0229 131.227 60.6501 131.155H0C0 131.155 0.0058624 139.9 0 140.646C1.1291 141.431 5.17767 143.989 6.43106 144.566C6.51547 144.605 6.61045 144.652 6.69604 144.69C7.01847 144.843 7.33152 144.992 7.64457 145.145C7.96701 145.297 8.28123 145.448 8.59428 145.619C9.18287 145.903 9.77145 146.216 10.3413 146.538C19.7751 152.008 43.254 156.851 70.3782 160.766C70.6924 160.803 71.0148 160.851 71.3267 160.898C71.6409 160.945 71.9633 160.993 72.2764 161.032C98.6513 164.785 128.205 167.667 151.571 169.41C151.885 169.438 152.197 169.468 152.512 169.486C152.833 169.505 153.156 169.533 153.469 169.553C162.941 170.245 171.322 170.738 177.956 171.021C184.324 171.288 192.999 171.468 203.038 171.591H203.048C203.58 171.6 204.102 171.6 204.644 171.609H204.652C205.184 171.62 205.716 171.62 206.257 171.629C228.416 171.859 273.108 171.825 299.909 171.866L300 131.218L211.158 131.155H190.072Z" fill="#575770"/>
<path id="Fill 24" fill-rule="evenodd" clip-rule="evenodd" d="M156.749 99.6187C156.74 99.6187 156.729 99.6281 156.711 99.6374C156.711 99.6374 156.701 99.6374 156.691 99.6468C156.626 99.6761 156.475 99.7323 156.255 99.8178C156.246 99.8271 156.246 99.8271 156.237 99.8271C155.419 100.169 153.664 100.861 151.045 101.76C150.551 101.931 150.048 102.112 149.489 102.301H149.46C144.895 103.827 138.308 105.79 130.061 107.608H130.052C128.628 107.932 127.157 108.244 125.629 108.548C123.257 109.031 120.769 109.486 118.179 109.913H118.093C115.748 110.311 113.339 110.68 110.823 111.011C109.846 111.145 108.859 111.268 107.853 111.392C107.14 111.476 106.43 111.562 105.709 111.638C100.774 112.179 95.5537 112.595 90.0864 112.822H90.0301C86.0906 112.993 82.0666 113.069 77.8902 113.021C76.638 112.963 75.3764 112.908 74.0855 112.831H74.075L73.3914 112.804C70.8964 112.661 68.3345 112.5 65.666 112.338C65.0117 112.301 64.3575 112.263 63.6927 112.216C60.6747 112.036 57.618 111.856 54.5438 111.703C54.5438 111.695 54.5438 111.695 54.5344 111.703C49.6932 111.448 44.8157 111.257 40.0226 111.23C39.9101 111.22 39.7952 111.22 39.6908 111.22C38.1912 111.202 36.701 111.21 35.2213 111.23C34.6703 111.24 34.1192 111.249 33.5693 111.268C32.6208 111.287 31.6804 111.315 30.7413 111.353C18.8277 111.84 7.92714 113.689 0 118.375V120.596C3.88795 118.088 8.6447 116.365 13.9525 115.211V126.984V134.965H15.8508V127.012V114.822C20.359 113.969 25.2271 113.496 30.3039 113.277C32.4883 113.173 34.6984 113.125 36.9378 113.116C37.0527 113.107 37.1571 113.107 37.2708 113.116H37.2802C37.5932 113.107 37.8969 113.107 38.2018 113.107C39.1878 113.107 40.175 113.116 41.1717 113.136H41.181C41.181 113.125 41.181 113.125 41.1904 113.136C43.3736 113.154 45.5837 113.211 47.7962 113.297C50.9947 113.41 54.2026 113.562 57.3812 113.742C59.8305 113.874 62.2693 114.027 64.6705 114.168C64.9355 114.187 65.1923 114.206 65.449 114.216C65.4866 114.226 65.5147 114.226 65.5534 114.226C67.3567 114.338 69.1119 114.444 70.8401 114.548C73.232 114.69 75.5558 114.814 77.8433 114.917C85.3988 115.003 92.5814 114.709 99.3208 114.15C100.754 114.027 102.149 113.893 103.544 113.75H103.602C105.1 113.609 106.571 113.439 108.015 113.268C114.819 112.453 121.026 111.401 126.626 110.254H126.663C127.262 110.139 127.84 110.017 128.41 109.902H128.419C129.928 109.58 131.371 109.249 132.766 108.926C142.684 106.614 150.001 104.179 154.005 102.717H154.025C154.918 102.386 155.62 102.112 156.18 101.893V103.638L132.861 108.974L128.533 109.969L127.175 110.272H127.1L109.979 114.216C109.979 114.216 109.979 114.206 109.969 114.216L72.8322 122.719L70.2797 123.296L62.5835 125.06L61.7088 125.259H61.7006L54.3539 126.945L54.2026 126.973L53.3866 127.163L51.6958 127.552L47.8525 128.434H47.8431L46.5616 128.728L46.2016 128.813L45.8499 128.889L43.2024 129.504H43.1743L42.6431 129.619L41.7309 129.838L39.8045 130.273L38.1619 130.651L8.40082 137.467L6.90943 137.807H6.90005L6.65383 137.865H6.63507L5.62791 138.017H5.6197L5.33479 138.064H5.32541L1.78569 138.577C1.92756 139.202 2.06943 139.818 2.22185 140.433L6.65383 139.77L6.98681 139.723L7.60354 139.58L8.16281 139.448L8.55207 139.363L8.72326 139.325L9.71048 139.098L11.2863 138.737L38.4093 132.538L42.2726 131.648L43.3443 131.401L43.5811 131.354H43.601L45.803 130.841L45.8499 130.832L46.6659 130.642L47.5863 130.434L48.6779 130.187H48.7072L52.0101 129.42L53.4041 129.107L54.3539 128.889L54.4207 128.869L59.6687 127.665L61.8894 127.163L62.0887 127.116L112.998 115.467L130.944 111.363L134.417 110.566L135.556 110.311L158.077 105.155V99.0402L156.749 99.6187Z" fill="#575770"/>
<path id="Fill 25" fill-rule="evenodd" clip-rule="evenodd" d="M39.5913 120.159C39.2864 120.774 38.4329 121.203 36.8102 121.335C36.2122 121.391 35.5005 121.402 34.6833 121.373C34.5895 121.373 34.4945 121.362 34.3995 121.362C33.9728 121.354 33.526 121.354 33.0699 121.362H33.0617C32.302 121.373 31.5059 121.41 30.6699 121.477C30.6511 121.477 30.623 121.477 30.5937 121.486C26.2473 121.828 21.018 122.869 15.8263 124.453C15.1896 124.642 14.5635 124.841 13.928 125.051C13.3312 125.25 12.7426 125.449 12.1541 125.667C11.0519 126.054 9.96153 126.472 8.89809 126.908C5.8426 128.159 2.49517 129.838 0.00833764 131.41C-0.0104221 129.498 0.00833764 125.924 0.00833764 125.924C0.19828 125.783 0.375324 125.667 0.584026 125.533C0.783347 125.401 1.0026 125.267 1.2113 125.135C2.92781 124.083 5.00662 123.108 7.50283 122.244C7.92024 122.102 8.34819 121.96 8.78436 121.828C9.00244 121.761 9.2299 121.685 9.45853 121.618C10.4833 121.306 11.5842 121.021 12.7426 120.747C13.0651 120.671 13.3863 120.595 13.7205 120.52C13.785 120.5 13.8624 120.491 13.928 120.472C13.9949 120.463 14.0617 120.443 14.1273 120.433C14.3935 120.377 14.6585 120.321 14.9446 120.264C15.2283 120.206 15.5226 120.149 15.8263 120.083C16.1675 120.027 16.5087 119.96 16.851 119.903C17.8195 119.733 18.8255 119.572 19.8702 119.419C20.0777 119.391 20.3063 119.362 20.5244 119.335C21.0942 119.258 21.6723 119.183 22.2608 119.116C22.6208 119.069 22.9819 119.031 23.3524 118.993C24.3959 118.869 25.4781 118.775 26.5979 118.68C27.7844 118.586 28.9803 118.481 30.1763 118.377C31.5059 118.254 32.8425 118.122 34.1908 117.988C34.5989 117.95 35.0069 117.912 35.4149 117.875C36.2415 117.79 37.0576 117.704 37.883 117.618H37.8924C38.1866 117.59 38.4809 117.552 38.7752 117.523C39.5538 118.538 39.9325 119.467 39.5913 120.159Z" fill="#3B3B4F"/>
<path id="Fill 26" fill-rule="evenodd" clip-rule="evenodd" d="M211.669 175.724L210.529 177.24L202.995 171.591H202.984L199.625 169.069L197.336 167.355C194.366 164.983 190.676 163.676 186.917 163.647C180.149 163.591 168.135 163.411 153.414 162.757C152.788 162.737 152.162 162.709 151.516 162.672C136.037 161.97 117.758 160.767 99.4882 158.728C93.3479 158.045 87.1783 157.268 81.0392 156.406C78.0869 155.988 75.1451 155.552 72.221 155.108C71.861 155.051 71.4905 154.993 71.1306 154.936C70.855 154.899 70.59 154.852 70.3239 154.804C43.181 150.528 21.5323 145.258 9.31738 139.97C9.05123 139.856 8.79563 139.733 8.54003 139.629C8.40637 139.562 8.28326 139.505 8.15077 139.447C7.81895 139.297 7.49535 139.145 7.1823 138.994L6.93608 138.879C6.85048 138.832 6.76489 138.794 6.68868 138.756H6.66992L6.64178 138.747L6.46005 138.652C6.07079 138.453 5.68269 138.263 5.32274 138.064H5.31219C4.48676 137.619 3.71879 137.183 3.0153 136.747C3.00592 136.738 2.98833 136.727 2.9684 136.718C2.31298 136.302 0.570679 135.383 0.0196126 134.965C-0.0214242 134.357 0.0137502 133.386 0.0196126 132.596C1.97531 133.913 5.51151 136.055 7.23037 136.917L7.29603 136.946C7.44728 137.021 7.60908 137.098 7.77088 137.173L7.99834 137.288C8.12145 137.344 8.25512 137.41 8.38761 137.467C8.92812 137.724 9.49795 137.98 10.076 138.234C10.4664 138.406 10.8639 138.576 11.2731 138.738C23.6674 143.846 44.9268 148.917 71.4155 153.06C80.7637 154.52 90.2737 155.79 99.6969 156.852C136.264 160.936 172.889 161.638 186.935 161.751C191.112 161.781 195.221 163.24 198.496 165.856L203.032 169.249L206.201 171.629L211.669 175.724Z" fill="#F0F2F5"/>
<path id="Fill 27" fill-rule="evenodd" clip-rule="evenodd" d="M6.30046 147.629H8.19753V137.861H6.30046V147.629Z" fill="#F0F2F5"/>
<path id="Fill 28" fill-rule="evenodd" clip-rule="evenodd" d="M69.9845 165.548H71.8816V153.866H69.9845V165.548Z" fill="#F0F2F5"/>
<path id="Fill 29" fill-rule="evenodd" clip-rule="evenodd" d="M151.172 173.173H153.07V162.539H151.172V173.173Z" fill="#F0F2F5"/>
<path id="Fill 30" fill-rule="evenodd" clip-rule="evenodd" d="M56.197 59.8686C53.2576 60.1754 39.6475 60.8288 25.6047 61.4483C26.2132 60.8687 26.8557 60.2984 27.531 59.7375C29.4176 58.1683 31.834 57.3744 34.2845 57.5313C36.8863 57.6976 39.121 57.8393 40.7097 57.9341C49.7097 58.4857 62.6902 59.1801 56.197 59.8686Z" fill="#FEFEFE"/>
<path id="Fill 31" fill-rule="evenodd" clip-rule="evenodd" d="M138.274 85.834H138.598V69.3275H138.274V85.834Z" fill="#575770"/>
<path id="Fill 32" fill-rule="evenodd" clip-rule="evenodd" d="M138.702 69.7353H138.171V69.6217C138.171 68.9074 137.659 68.2984 136.954 68.1755L135.968 68.0045C135.63 67.9448 135.288 68.0923 135.096 68.3769L134.964 68.5701L134.525 68.275L134.656 68.0806C134.964 67.6228 135.513 67.3874 136.06 67.4823L137.044 67.6544C138.005 67.8207 138.702 68.6486 138.702 69.6217V69.7353Z" fill="#575770"/>
<path id="Fill 33" fill-rule="evenodd" clip-rule="evenodd" d="M138.703 69.7353H138.171V69.6217C138.171 68.6486 138.869 67.8207 139.828 67.6544L140.814 67.4823C141.358 67.3874 141.908 67.6228 142.218 68.0806L142.348 68.275L141.907 68.5701L141.777 68.3769C141.586 68.0923 141.242 67.9448 140.904 68.0045L139.92 68.1755C139.215 68.2973 138.703 68.9062 138.703 69.6217V69.7353Z" fill="#575770"/>
<path id="Fill 34" fill-rule="evenodd" clip-rule="evenodd" d="M275.783 31.7794C273.777 31.0874 271.641 30.8555 269.534 31.1038C257.478 32.523 246.002 34.1952 251.686 34.7409C257.135 35.2643 279.965 35.4412 285.359 35.4763C285.573 35.4775 285.624 35.1789 285.421 35.1098L275.783 31.7794Z" fill="#FEFEFE"/>
<path id="Fill 35" fill-rule="evenodd" clip-rule="evenodd" d="M207.332 149.179C205.168 149.455 201.941 150.033 197.766 150.716C184.146 152.943 160.553 156.298 131.853 154.071C111.534 153.123 48.0977 143.758 37.7048 142.109C27.3131 140.45 32.5048 138.336 44.1968 138.687C55.8993 139.037 162.993 141.247 162.993 141.247L193.628 146.118C193.628 146.118 202.568 146.859 207.029 147.691C209.724 148.193 210.796 148.734 207.332 149.179Z" fill="#272738"/>
<path id="Fill 36" fill-rule="evenodd" clip-rule="evenodd" d="M174.965 134.556C174.965 142.634 181.523 149.184 189.612 149.184C197.702 149.184 204.259 142.634 204.259 134.556C204.259 126.477 197.702 119.927 189.612 119.927C181.523 119.927 174.965 126.477 174.965 134.556Z" fill="#272738"/>
<path id="Fill 37" fill-rule="evenodd" clip-rule="evenodd" d="M128.188 135.263C128.188 144.906 133.739 152.723 140.59 152.723C147.44 152.723 152.993 144.906 152.993 135.263C152.993 125.621 147.44 117.804 140.59 117.804C133.739 117.804 128.188 125.621 128.188 135.263Z" fill="#272738"/>
<path id="Fill 38" fill-rule="evenodd" clip-rule="evenodd" d="M129.605 152.723H140.473V117.804H129.605V152.723Z" fill="#272738"/>
<path id="Fill 39" fill-rule="evenodd" clip-rule="evenodd" d="M46.2093 128.42C46.2093 135.979 49.6482 142.107 53.8879 142.107C58.1287 142.107 61.5665 135.979 61.5665 128.42C61.5665 120.863 58.1287 114.735 53.8879 114.735C49.6482 114.735 46.2093 120.863 46.2093 128.42Z" fill="#272738"/>
<path id="Fill 40" fill-rule="evenodd" clip-rule="evenodd" d="M45.4997 142.107H54.0049V114.736H45.4997V142.107Z" fill="#272738"/>
<path id="Fill 41" fill-rule="evenodd" clip-rule="evenodd" d="M148.741 142.106L118.029 142.342L70.5431 131.96H58.2579C58.2579 131.96 36.0511 134.083 34.1611 125.118C32.271 116.151 43.6112 106.949 43.6112 106.949L149.687 111.197L148.741 142.106Z" fill="#272738"/>
<path id="Fill 42" fill-rule="evenodd" clip-rule="evenodd" d="M212.524 122.69V129.855C212.524 130.473 212.457 131.089 212.324 131.694L211.404 135.828C211.242 136.557 211.233 137.315 211.423 138.045C212.239 141.088 209.277 141.951 204.731 142.814C200.508 143.618 160.239 144.254 148.291 144.425C148.129 144.433 147.977 144.433 147.834 144.433H147.418C146.905 144.444 146.42 144.301 146.012 144.046C145.88 143.97 145.757 143.875 145.643 143.761C145.528 143.657 145.424 143.543 145.329 143.419C145.274 143.354 145.234 143.287 145.196 143.22C145.112 143.088 145.035 142.946 144.979 142.794C144.893 142.576 144.836 142.329 144.818 142.084C144.798 141.893 144.779 141.694 144.76 141.486C144.732 141.108 144.685 140.7 144.637 140.263C144.59 139.932 144.551 139.571 144.503 139.211C144.475 139.003 144.446 138.784 144.408 138.568C144.38 138.406 144.362 138.245 144.333 138.075C144.238 137.401 144.114 136.7 143.972 135.96C143.877 135.42 143.764 134.861 143.631 134.282C143.612 134.207 143.592 134.14 143.583 134.075C143.441 133.429 143.279 132.775 143.099 132.103C143.014 131.77 142.929 131.439 142.824 131.098C142.625 130.415 142.416 129.742 142.189 129.069C142.094 128.765 141.99 128.471 141.875 128.169C141.467 127.051 141.012 125.941 140.489 124.869C140.394 124.653 140.291 124.443 140.176 124.235C139.958 123.78 139.721 123.345 139.464 122.908C139.274 122.567 139.075 122.235 138.867 121.903C138.829 121.836 138.781 121.771 138.743 121.704C138.562 121.429 138.383 121.154 138.193 120.889C138.126 120.774 138.05 120.67 137.955 120.567C137.841 120.387 137.708 120.206 137.566 120.035C137.443 119.866 137.31 119.695 137.177 119.534C136.703 118.946 136.199 118.396 135.658 117.875C135.403 117.618 135.146 117.373 134.871 117.145C134.605 116.909 134.339 116.69 134.054 116.471C134.045 116.471 134.037 116.463 134.037 116.463C133.751 116.234 133.456 116.027 133.154 115.828C132.556 115.419 131.919 115.059 131.256 114.738C127.81 113.676 125.067 114.301 122.922 115.771C122.608 115.979 122.306 116.217 122.021 116.463C121.727 116.71 121.451 116.974 121.194 117.25C118.708 119.866 117.332 123.619 116.848 126.301C116.393 128.795 116.155 131.345 116.278 133.922C116.289 134.291 116.306 134.671 116.345 135.05C116.364 135.297 116.383 135.543 116.421 135.79C116.44 135.997 116.459 136.216 116.498 136.434C116.526 136.68 116.563 136.927 116.61 137.173C116.63 137.353 116.668 137.534 116.705 137.723C116.763 138.045 116.829 138.369 116.904 138.689C116.952 138.927 117.019 139.173 117.077 139.41L55.0162 132.861C54.7887 132.51 54.6081 132.121 54.4651 131.714C54.41 131.562 54.3701 131.411 54.3326 131.258C54.2951 131.098 54.2576 130.946 54.2376 130.785C54.2107 130.633 54.1907 130.481 54.1813 130.32V130.291C53.8871 125.609 52.7392 118.387 48.6578 114.282C48.231 113.856 47.7562 113.477 47.2438 113.164C46.9014 112.956 46.5415 112.785 46.1616 112.632C45.981 112.557 45.7911 112.5 45.6023 112.444C45.213 112.34 44.8144 112.263 44.4158 112.225C44.2258 112.206 44.0453 112.206 43.8647 112.206C43.656 112.206 43.4473 112.217 43.248 112.245C43.0768 112.263 42.9162 112.282 42.7543 112.321C42.745 112.321 42.7344 112.321 42.7262 112.329C42.6406 112.34 42.5644 112.358 42.4894 112.386C42.3276 112.416 42.1658 112.463 42.0133 112.528C41.8621 112.585 41.7097 112.643 41.5678 112.718C41.3603 112.804 41.1598 112.917 40.971 113.041C40.828 113.125 40.6849 113.231 40.5431 113.335C40.3906 113.447 40.2394 113.581 40.0881 113.713V113.724C39.9357 113.845 39.7938 113.988 39.6602 114.139C39.3577 114.463 39.0716 114.822 38.8066 115.22C38.7304 115.344 38.6448 115.467 38.5698 115.6C38.2086 116.187 37.8862 116.832 37.6013 117.514C37.5063 117.733 37.4207 117.95 37.3351 118.177C37.2601 118.405 37.1733 118.633 37.0983 118.869C36.4335 120.898 36.1205 123.021 36.2436 125.154C36.3772 127.44 36.9084 128.424 37.2976 128.841C37.4876 129.051 37.6494 129.117 37.6963 129.126L37.7045 129.135L37.9437 130.548C37.9437 130.548 34.6302 129.838 32.5045 127.714C32.1153 127.325 31.7166 126.567 31.3379 125.552C31.0811 124.861 30.8337 124.074 30.625 123.192C30.2838 121.808 30.0083 120.234 29.8664 118.633C29.6671 116.444 29.7046 114.206 30.1314 112.321C30.4726 110.766 31.0811 109.447 32.0308 108.605C32.0308 108.605 32.7988 104.358 33.5867 101.411C33.7286 100.86 33.9854 100.348 34.3172 99.9035C34.8964 99.1166 35.7312 98.5288 36.6997 98.2536C37.2402 98.1025 37.8768 97.9034 38.6073 97.6376C38.626 97.6283 38.6448 97.6189 38.6647 97.6095C40.4199 96.9643 42.6793 95.9408 45.3256 94.3014C45.3455 94.2921 45.3643 94.2815 45.3831 94.264C46.1053 93.8272 46.8545 93.3342 47.6225 92.7944C51.2103 90.3013 55.2354 87.7134 59.7143 85.4955C64.9916 82.8994 70.8845 80.822 77.3953 80.055C89.3065 78.6521 117.152 79.3348 135.811 83.4474C136.239 83.5422 136.645 83.7132 137.007 83.9603L160.126 99.1353C160.875 99.619 161.72 99.9304 162.603 100.036L177.54 101.798C189.157 103.164 200.176 107.638 209.459 114.738L209.933 118.984L211.793 121.012L211.935 121.174C212.315 121.591 212.524 122.13 212.524 122.69Z" fill="#D8D8E7"/>
<path id="Fill 43" fill-rule="evenodd" clip-rule="evenodd" d="M33.2161 109.554V112.034C33.2161 112.334 33.4577 112.515 33.7027 112.515C33.8575 112.515 34.0158 112.443 34.1119 112.279C35.4603 110 37.9154 108.602 40.5664 108.602H49.9404C51.7706 108.602 52.548 106.272 51.0836 105.173L46.5625 101.784C45.9047 101.294 45.5319 100.529 45.5319 99.7316C45.5319 99.5642 45.5495 99.3967 45.5823 99.2292C46.1369 96.4587 47.7291 94.0054 50.0354 92.3672L59.7189 85.4969C55.2388 87.7077 51.209 90.2992 47.6271 92.7934C42.7613 96.1811 38.9074 97.6367 36.6972 98.255C35.7288 98.5266 34.8963 99.1133 34.3148 99.8991C34.2069 100.225 34.1307 100.564 34.0908 100.914L33.3252 107.652C33.2513 108.285 33.2161 108.919 33.2161 109.554Z" fill="#E8E8EF"/>
<path id="Fill 44" fill-rule="evenodd" clip-rule="evenodd" d="M208.747 116.858H168.819L142.712 114.023L131.151 108.298C128.39 106.932 125.533 105.767 122.6 104.82L117.276 103.114C116.527 102.867 116.697 101.758 117.494 101.758H168.744L177.741 102.791C188.807 104.061 199.218 108.621 207.627 115.872C208.006 116.194 208.378 116.526 208.747 116.858Z" fill="#E8E8EF"/>
<path id="Fill 45" fill-rule="evenodd" clip-rule="evenodd" d="M148.29 144.424C148.129 144.434 147.977 144.434 147.834 144.434C147.693 144.434 147.551 144.434 147.418 144.444C146.905 144.453 146.42 144.302 146.014 144.046C145.88 143.969 145.757 143.874 145.643 143.762C145.529 143.657 145.425 143.543 145.33 143.42C145.274 143.353 145.235 143.286 145.196 143.221C145.112 143.087 145.036 142.945 144.979 142.793C144.894 142.577 144.836 142.33 144.818 142.084C144.798 141.894 144.779 141.695 144.76 141.485C144.732 141.107 144.685 140.699 144.637 140.263C144.59 139.931 144.553 139.571 144.505 139.211C144.466 139.003 144.438 138.785 144.408 138.567C144.38 138.406 144.362 138.245 144.333 138.074C144.229 137.401 144.106 136.69 143.972 135.959C143.869 135.41 143.754 134.85 143.631 134.282C143.612 134.206 143.592 134.141 143.583 134.074C143.441 133.429 143.28 132.775 143.099 132.103C143.014 131.769 142.919 131.429 142.824 131.097C142.625 130.415 142.416 129.742 142.189 129.069C142.083 128.766 141.979 128.463 141.875 128.169C141.468 127.05 141.012 125.941 140.49 124.87C140.395 124.652 140.291 124.444 140.176 124.235C139.959 123.78 139.721 123.344 139.465 122.907C139.275 122.567 139.076 122.235 138.867 121.904C138.829 121.837 138.782 121.77 138.743 121.705C138.562 121.428 138.383 121.154 138.193 120.888C138.126 120.775 138.051 120.671 137.956 120.566C137.841 120.387 137.709 120.206 137.567 120.036C137.443 119.865 137.31 119.695 137.177 119.534C136.703 118.946 136.199 118.395 135.659 117.874C135.403 117.618 135.146 117.372 134.871 117.145C134.605 116.908 134.331 116.689 134.054 116.471C134.046 116.471 134.037 116.462 134.037 116.462C133.752 116.244 133.457 116.026 133.154 115.827C132.556 115.429 131.919 115.07 131.256 114.747C127.81 113.686 125.067 114.311 122.922 115.77C122.61 115.978 122.306 116.216 122.021 116.462C121.736 116.709 121.461 116.975 121.196 117.249C118.709 119.865 117.332 123.618 116.849 126.301C116.393 128.794 116.155 131.344 116.278 133.922C116.289 134.292 116.308 134.671 116.345 135.049C116.365 135.296 116.383 135.542 116.421 135.789C116.44 136.008 116.468 136.216 116.498 136.435C116.526 136.681 116.563 136.928 116.61 137.174C116.639 137.354 116.668 137.542 116.706 137.723C116.762 138.046 116.829 138.368 116.904 138.69C116.952 138.928 117.019 139.174 117.077 139.41L55.0161 132.861C54.7887 132.509 54.6093 132.121 54.4662 131.714C54.41 131.562 54.3701 131.411 54.3326 131.259C54.2951 131.097 54.2575 130.945 54.2376 130.786C54.2106 130.634 54.1907 130.481 54.1813 130.32V130.292C53.887 125.61 52.7392 118.387 48.6578 114.283C48.231 113.857 47.7561 113.476 47.2438 113.165C46.9014 112.955 46.5414 112.776 46.1627 112.633C45.981 112.557 45.7911 112.499 45.6023 112.443C45.213 112.33 44.8144 112.263 44.4157 112.225C44.2258 112.205 44.0452 112.205 43.8658 112.205C43.656 112.205 43.4473 112.216 43.2479 112.245C43.0779 112.263 42.9161 112.283 42.7543 112.32C42.745 112.32 42.7356 112.32 42.7262 112.33C42.6418 112.34 42.5644 112.358 42.4894 112.387C42.3276 112.415 42.1657 112.462 42.0133 112.529C41.8632 112.586 41.7108 112.642 41.569 112.718C41.3603 112.804 41.1598 112.917 40.971 113.04C40.8279 113.125 40.6861 113.23 40.5442 113.334C40.3918 113.448 40.23 113.58 40.0881 113.713V113.723C39.9357 113.846 39.7938 113.989 39.6613 114.14C39.3577 114.462 39.0727 114.823 38.8066 115.221C38.7316 115.344 38.6448 115.467 38.5698 115.6C38.2086 116.188 37.8862 116.832 37.6013 117.515C37.5063 117.733 37.4207 117.95 37.3351 118.178C37.2601 118.405 37.1733 118.633 37.0983 118.87C36.4347 120.898 36.1204 123.022 36.2447 125.154C36.3772 127.439 36.9083 128.425 37.2976 128.841C37.4876 129.04 37.6494 129.107 37.6963 129.126H37.7056V129.135L37.9436 130.547C37.9436 130.547 34.6314 129.837 32.5045 127.713C32.1152 127.324 31.7166 126.567 31.3379 125.553L34.2984 116.689C35.485 113.125 38.8254 110.728 42.5843 110.728H49.9112C52.5293 110.728 55.0454 111.77 56.9062 113.618L59.3918 116.101C60.7871 117.496 62.6748 118.272 64.6399 118.272C66.2063 118.272 67.0411 116.434 66.007 115.258L60.1891 108.623C59.6287 107.989 59.325 107.172 59.325 106.329C59.325 106.112 59.3449 105.884 59.3918 105.665C59.8292 103.429 61.8494 101.855 64.1275 101.998L109.502 104.681C118.889 105.239 127.867 108.709 135.184 114.605L139.028 117.695C143.431 121.249 146.261 126.386 146.896 132.007L148.29 144.424Z" fill="#CAC9DA"/>
<path id="Fill 46" fill-rule="evenodd" clip-rule="evenodd" d="M212.52 122.684V129.854C212.52 130.468 212.46 131.093 212.331 131.694L211.41 135.823C211.244 136.554 211.233 137.321 211.421 138.04C212.236 141.083 209.284 141.956 204.737 142.816C202.105 143.312 185.56 143.747 170.539 144.055C161.4 144.231 152.815 144.362 148.293 144.421C148.127 144.421 147.974 144.421 147.832 144.432H147.419C146.91 144.444 146.427 144.302 146.013 144.042C145.883 143.96 145.754 143.867 145.647 143.76C145.529 143.654 145.422 143.547 145.329 143.418C145.28 143.358 145.234 143.288 145.198 143.217C145.116 143.088 145.033 142.946 144.974 142.793C144.891 142.568 144.833 142.333 144.821 142.074C144.796 141.884 144.785 141.696 144.762 141.484C144.738 141.105 144.691 140.706 144.643 140.269C144.585 139.927 144.549 139.574 144.501 139.207C144.479 139.007 144.442 138.783 144.407 138.57C144.395 138.406 144.36 138.24 144.337 138.076C144.243 137.403 144.112 136.695 143.97 135.965C143.876 135.421 143.769 134.856 143.628 134.277C143.628 134.219 143.605 134.148 143.58 134.077C143.439 133.428 143.285 132.78 143.096 132.107C143.014 131.765 142.931 131.435 142.825 131.093C142.635 130.433 142.424 129.749 142.187 129.065C142.094 128.77 141.987 128.475 141.88 128.169C141.466 127.059 141.007 125.951 140.486 124.866C140.391 124.654 140.287 124.442 140.18 124.229C139.955 123.793 139.719 123.345 139.459 122.908C139.27 122.566 139.082 122.236 138.869 121.906C138.858 121.882 138.833 121.859 138.833 121.835L142.141 120.786L148.293 118.828L160.089 119.925H160.101L164.424 120.325C168.037 120.656 171.237 122.766 172.973 125.94L173.61 127.096C174.448 128.628 176.031 129.607 177.778 129.679C183.364 129.902 195.893 130.316 202.848 129.926C204.939 129.808 206.733 128.38 207.323 126.375L207.866 124.549C208.41 122.731 209.922 121.363 211.8 121.01L211.964 121.198C212.331 121.612 212.52 122.142 212.52 122.684Z" fill="#C5CC2B"/>
<path id="Fill 47" fill-rule="evenodd" clip-rule="evenodd" d="M212.519 122.684V129.854C212.519 130.468 212.46 131.093 212.331 131.694L211.409 135.823C211.244 136.554 211.232 137.321 211.421 138.04C212.236 141.083 209.283 141.956 204.736 142.816C202.104 143.312 185.559 143.747 170.539 144.055C175.037 132.993 174.048 125.146 164.423 119.925V120.325C168.037 120.656 171.236 122.766 172.973 125.94L173.609 127.095C174.448 128.628 176.031 129.607 177.778 129.679C183.363 129.902 195.892 130.316 202.848 129.926C204.938 129.808 206.732 128.38 207.323 126.375L207.866 124.549C208.41 122.731 209.921 121.363 211.799 121.01L211.964 121.198C212.331 121.612 212.519 122.142 212.519 122.684Z" fill="#C5CC2B"/>
<path id="Fill 48" fill-rule="evenodd" clip-rule="evenodd" d="M148.291 144.424C148.129 144.424 147.978 144.424 147.835 144.434C147.693 144.434 147.551 144.434 147.419 144.444C146.905 144.453 146.421 144.301 146.014 144.046C145.88 143.961 145.757 143.865 145.643 143.762C145.53 143.657 145.425 143.543 145.33 143.42C145.283 143.353 145.235 143.286 145.197 143.221C145.112 143.087 145.036 142.945 144.98 142.793C144.894 142.567 144.837 142.33 144.818 142.073C144.798 141.885 144.779 141.695 144.761 141.485C144.732 141.107 144.685 140.699 144.637 140.263C144.591 139.922 144.553 139.571 144.505 139.211C144.466 139.003 144.438 138.785 144.409 138.567C144.391 138.405 144.362 138.245 144.334 138.074C144.229 137.401 144.106 136.69 143.973 135.959C143.869 135.41 143.755 134.85 143.631 134.282C143.622 134.216 143.603 134.15 143.583 134.074C143.441 133.429 143.281 132.775 143.099 132.103C143.015 131.769 142.92 131.429 142.825 131.097C142.635 130.434 142.426 129.752 142.189 129.069C142.084 128.766 141.979 128.463 141.875 128.169C141.468 127.06 141.012 125.951 140.49 124.87C140.395 124.652 140.291 124.444 140.176 124.235C139.959 123.789 139.721 123.344 139.466 122.907C139.276 122.566 139.076 122.235 138.868 121.904C138.857 121.884 138.838 121.856 138.829 121.837L142.141 120.785C144.761 123.969 146.431 127.856 146.897 132.007L148.291 144.424Z" fill="#B7B723"/>
<path id="Fill 49" fill-rule="evenodd" clip-rule="evenodd" d="M37.7041 129.135L37.9398 130.539C37.9398 130.539 34.6345 129.832 32.5076 127.709C32.3189 127.52 32.1418 127.26 31.9648 126.93C31.7408 126.553 31.5392 126.093 31.3387 125.562C31.0796 124.866 30.8322 124.076 30.6305 123.192L29.8637 118.627C29.6632 116.445 29.7101 114.205 30.1345 112.318C30.5836 112.259 31.1147 112.224 31.7057 112.2H31.7279C34.1726 112.117 37.5153 112.507 38.9668 114.995C38.1883 116.081 37.5751 117.412 37.1014 118.864C36.4284 120.891 36.1212 123.026 36.2397 125.161C36.453 128.818 37.7041 129.135 37.7041 129.135Z" fill="#CDDD39"/>
<path id="Fill 50" fill-rule="evenodd" clip-rule="evenodd" d="M87.097 109.108L89.1019 109.233C89.9813 109.288 90.6848 109.98 90.754 110.858C90.7868 111.277 90.4433 111.629 90.0212 111.606L86.3208 111.396C85.9468 111.375 85.656 111.062 85.6642 110.689L85.6701 110.418C85.6865 109.656 86.3349 109.06 87.097 109.108Z" fill="#4B4A61"/>
<path id="Fill 51" fill-rule="evenodd" clip-rule="evenodd" d="M59.9302 106.748L61.9351 106.874C62.8133 106.929 63.5168 107.621 63.586 108.497C63.6188 108.918 63.2752 109.269 62.8532 109.247L59.1528 109.036C58.78 109.016 58.4892 108.702 58.4962 108.328L58.5021 108.059C58.5185 107.296 59.1681 106.7 59.9302 106.748Z" fill="#4B4A61"/>
<path id="Fill 52" fill-rule="evenodd" clip-rule="evenodd" d="M203.444 114.028H180.335C178.896 114.028 177.55 114.736 176.737 115.922L176.199 116.709C175.492 117.741 175.659 119.136 176.59 119.972L181.312 124.216C181.788 124.644 182.406 124.883 183.047 124.883H203.226C204.157 124.883 205.016 124.384 205.477 123.577L206.405 121.956C207.156 120.643 207.435 119.112 207.196 117.617L207.123 117.161C206.835 115.357 205.276 114.028 203.444 114.028Z" fill="#6C6C87"/>
<path id="Fill 53" fill-rule="evenodd" clip-rule="evenodd" d="M202.877 114.649H181.744C180.429 114.649 179.198 115.276 178.455 116.327L177.962 117.022C177.315 117.937 177.468 119.172 178.32 119.912L182.638 123.672C183.073 124.052 183.639 124.261 184.224 124.261H202.679C203.53 124.261 204.316 123.821 204.737 123.107L205.585 121.671C206.273 120.507 206.527 119.151 206.309 117.828L206.242 117.423C205.978 115.824 204.552 114.649 202.877 114.649Z" fill="#4B4A61"/>
<path id="Fill 54" fill-rule="evenodd" clip-rule="evenodd" d="M140.473 114.028L149.809 119.765C151.737 120.951 153.955 121.578 156.219 121.578H164.051C167.409 121.578 170.628 120.248 173.001 117.877L174.965 115.915L174.553 115.615C173.843 115.099 173.058 114.702 172.234 114.436C171.406 114.167 170.54 114.028 169.662 114.028C169.104 114.028 168.543 113.998 167.989 113.934L167.591 113.889L151.89 112.109C151.104 112.02 150.317 111.977 149.53 111.977C149.116 111.977 148.701 111.99 148.29 112.015C145.59 112.174 142.935 112.853 140.473 114.028Z" fill="#6B6B82"/>
<path id="Fill 55" fill-rule="evenodd" clip-rule="evenodd" d="M209.457 114.735L208.748 116.388L210.756 121.402C210.898 121.758 211.389 121.79 211.578 121.456L212.38 120.031C212.912 119.088 212.912 117.935 212.38 116.991L211.852 116.052C211.393 115.239 210.532 114.735 209.598 114.735H209.457Z" fill="#6B6B82"/>
<path id="Fill 56" fill-rule="evenodd" clip-rule="evenodd" d="M207.661 132.119C203.359 132.955 198.977 133.297 194.596 133.139L160.029 131.893C157.199 131.791 154.583 133.396 153.397 135.965L152.298 138.34C151.728 139.574 152.592 140.991 153.952 141.052L177.463 142.092C177.688 142.1 177.912 142.101 178.136 142.096L203.289 141.243C204.852 141.19 206.369 140.714 207.684 139.865L208.542 139.311C209.259 138.846 209.692 138.051 209.692 137.197V133.791C209.692 132.72 208.714 131.914 207.661 132.119Z" fill="#4B4A61"/>
<path id="Fill 59" fill-rule="evenodd" clip-rule="evenodd" d="M117.319 135.263C117.319 144.906 122.872 152.723 129.723 152.723C136.573 152.723 142.126 144.906 142.126 135.263C142.126 125.621 136.573 117.804 129.723 117.804C122.872 117.804 117.319 125.621 117.319 135.263Z" fill="#4B4A61"/>
<path id="Fill 60" fill-rule="evenodd" clip-rule="evenodd" d="M130.961 138.832C130.62 139.42 130.164 139.931 129.633 140.254C129.622 140.272 129.614 140.272 129.604 140.272C129.443 140.386 129.273 140.472 129.091 140.539H129.073H128.996C128.93 140.576 128.883 140.605 128.787 140.623C128.636 140.662 128.465 140.69 128.303 140.69C127.981 140.7 127.668 140.633 127.365 140.51C126.993 140.377 126.633 140.14 126.32 139.847C126.017 139.581 125.76 139.259 125.542 138.899C125.143 138.234 124.869 137.487 124.716 136.709C124.621 136.235 124.575 135.752 124.564 135.268C124.592 133.979 124.896 132.689 125.542 131.628C126.177 130.566 127.231 129.809 128.303 129.837C128.465 129.837 128.636 129.865 128.787 129.904C129.073 129.97 129.348 130.083 129.604 130.254C130.145 130.585 130.62 131.098 130.961 131.694C131.578 132.737 131.853 134.008 131.853 135.268C131.853 135.809 131.806 136.349 131.691 136.87C131.55 137.571 131.313 138.234 130.961 138.832ZM132.318 130.879C131.911 130.207 131.369 129.599 130.687 129.135C130.458 128.974 130.202 128.832 129.936 128.728C129.821 128.68 129.717 128.633 129.604 128.596C129.461 128.548 129.32 128.51 129.167 128.481C128.883 128.415 128.597 128.386 128.303 128.386C127.809 128.396 127.336 128.501 126.889 128.68C126.557 128.812 126.244 128.994 125.969 129.193C125.305 129.666 124.802 130.291 124.402 130.946C123.625 132.272 123.302 133.781 123.302 135.268C123.302 135.733 123.331 136.207 123.407 136.671C123.549 137.675 123.871 138.671 124.402 139.581C124.413 139.59 124.413 139.599 124.422 139.609C124.603 139.903 124.802 140.187 125.028 140.462C125.305 140.785 125.617 141.078 125.969 141.335C126.615 141.808 127.449 142.13 128.303 142.139C128.597 142.139 128.873 142.112 129.158 142.046H129.167C129.32 142.018 129.461 141.98 129.604 141.923C129.994 141.799 130.363 141.619 130.687 141.392C131.028 141.153 131.33 140.889 131.607 140.595C131.635 140.566 131.654 140.539 131.682 140.51C131.919 140.245 132.138 139.951 132.318 139.647C132.841 138.794 133.172 137.856 133.342 136.899C133.437 136.358 133.485 135.809 133.495 135.268C133.477 133.751 133.135 132.216 132.318 130.879Z" fill="white"/>
<path id="Fill 61" fill-rule="evenodd" clip-rule="evenodd" d="M37.7051 128.42C37.7051 135.979 41.1428 142.107 45.3825 142.107C49.6233 142.107 53.0611 135.979 53.0611 128.42C53.0611 120.863 49.6233 114.735 45.3825 114.735C41.1428 114.735 37.7051 120.863 37.7051 128.42Z" fill="#4B4A61"/>
<path id="Fill 62" fill-rule="evenodd" clip-rule="evenodd" d="M45.1559 125.411C45.279 125.6 45.3751 125.809 45.4595 126.036C45.4783 126.073 45.4877 126.112 45.4971 126.16V125.382L45.1559 125.411ZM45.1559 125.411C45.279 125.6 45.3751 125.809 45.4595 126.036C45.4783 126.073 45.4877 126.112 45.4971 126.16V125.382L45.1559 125.411ZM47.4428 127.495C47.3666 126.785 47.186 126.093 46.873 125.42C46.8436 125.373 46.8261 125.316 46.7885 125.268L46.4169 125.306L45.4965 125.382L45.1553 125.411C45.2784 125.6 45.3745 125.809 45.4589 126.036C45.4777 126.073 45.4871 126.112 45.4965 126.16C45.6489 126.566 45.7532 127.012 45.8013 127.467C45.8294 127.656 45.8388 127.846 45.8482 128.045C45.8576 128.168 45.8576 128.302 45.8576 128.425C45.8576 128.558 45.8576 128.68 45.8482 128.812L46.2082 128.728L47.4897 128.434H47.4991V128.425C47.4991 128.112 47.4803 127.799 47.4428 127.495ZM47.4428 127.495C47.3666 126.785 47.186 126.093 46.873 125.42C46.8436 125.373 46.8261 125.316 46.7885 125.268L46.4169 125.306L45.4965 125.382L45.1553 125.411C45.2784 125.6 45.3745 125.809 45.4589 126.036C45.4777 126.073 45.4871 126.112 45.4965 126.16C45.6489 126.566 45.7532 127.012 45.8013 127.467C45.8294 127.656 45.8388 127.846 45.8482 128.045C45.8576 128.168 45.8576 128.302 45.8576 128.425C45.8576 128.558 45.8576 128.68 45.8482 128.812L46.2082 128.728L47.4897 128.434H47.4991V128.425C47.4991 128.112 47.4803 127.799 47.4428 127.495ZM47.4428 127.495C47.3666 126.785 47.186 126.093 46.873 125.42C46.8436 125.373 46.8261 125.316 46.7885 125.268L46.4169 125.306L45.4965 125.382L45.1553 125.411C45.2784 125.6 45.3745 125.809 45.4589 126.036C45.4777 126.073 45.4871 126.112 45.4965 126.16C45.6489 126.566 45.7532 127.012 45.8013 127.467C45.8294 127.656 45.8388 127.846 45.8482 128.045C45.8576 128.168 45.8576 128.302 45.8576 128.425C45.8576 128.558 45.8576 128.68 45.8482 128.812L46.2082 128.728L47.4897 128.434H47.4991V128.425C47.4991 128.112 47.4803 127.799 47.4428 127.495ZM47.4428 127.495C47.3666 126.785 47.186 126.093 46.873 125.42C46.8436 125.373 46.8261 125.316 46.7885 125.268L46.4169 125.306L45.4965 125.382L45.1553 125.411C45.2784 125.6 45.3745 125.809 45.4589 126.036C45.4777 126.073 45.4871 126.112 45.4965 126.16C45.6489 126.566 45.7532 127.012 45.8013 127.467C45.8294 127.656 45.8388 127.846 45.8482 128.045C45.8576 128.168 45.8576 128.302 45.8576 128.425C45.8576 128.558 45.8576 128.68 45.8482 128.812L46.2082 128.728L47.4897 128.434H47.4991V128.425C47.4991 128.112 47.4803 127.799 47.4428 127.495ZM47.4428 127.495C47.3666 126.785 47.186 126.093 46.873 125.42C46.8436 125.373 46.8261 125.316 46.7885 125.268L46.4169 125.306L45.4965 125.382L45.1553 125.411C45.2784 125.6 45.3745 125.809 45.4589 126.036C45.4777 126.073 45.4871 126.112 45.4965 126.16C45.6489 126.566 45.7532 127.012 45.8013 127.467C45.8294 127.656 45.8388 127.846 45.8482 128.045C45.8576 128.168 45.8576 128.302 45.8576 128.425C45.8576 128.558 45.8576 128.68 45.8482 128.812L46.2082 128.728L47.4897 128.434H47.4991V128.425C47.4991 128.112 47.4803 127.799 47.4428 127.495ZM47.4428 127.495C47.3666 126.785 47.186 126.093 46.873 125.42C46.8436 125.373 46.8261 125.316 46.7885 125.268L46.4169 125.306L45.4965 125.382L45.1553 125.411C45.2784 125.6 45.3745 125.809 45.4589 126.036C45.4777 126.073 45.4871 126.112 45.4965 126.16C45.6489 126.566 45.7532 127.012 45.8013 127.467C45.8294 127.656 45.8388 127.846 45.8482 128.045C45.8576 128.168 45.8576 128.302 45.8576 128.425C45.8576 128.558 45.8576 128.68 45.8482 128.812L46.2082 128.728L47.4897 128.434H47.4991V128.425C47.4991 128.112 47.4803 127.799 47.4428 127.495ZM44.9187 131.77C44.6995 132.036 44.4533 132.168 44.1977 132.207C43.9503 132.216 43.656 132.12 43.3898 131.865C43.2386 131.742 43.1061 131.582 42.9912 131.4C42.9537 131.363 42.9255 131.325 42.8962 131.277C42.8212 131.164 42.7543 131.041 42.6969 130.918C42.5081 130.518 42.3744 130.073 42.29 129.619C42.2806 129.562 42.2607 129.495 42.2607 129.429C42.2033 129.097 42.1751 128.756 42.1751 128.425C42.1751 128.083 42.2033 127.742 42.2607 127.411C42.3369 126.89 42.48 126.386 42.6969 125.922C42.745 125.818 42.8012 125.714 42.8681 125.61C43.0205 125.363 43.1905 125.145 43.3898 124.974C43.656 124.718 43.9503 124.624 44.1977 124.633C44.3501 124.653 44.5002 124.708 44.6338 124.813C44.7382 124.87 44.8331 124.964 44.9187 125.069C45.0137 125.174 45.0887 125.288 45.1556 125.411C45.2787 125.6 45.3748 125.809 45.4592 126.036C45.478 126.073 45.4874 126.112 45.4968 126.16C45.6492 126.566 45.7535 127.012 45.8016 127.467C45.8297 127.657 45.8391 127.846 45.8485 128.045C45.8579 128.168 45.8579 128.302 45.8579 128.425C45.8579 128.558 45.8579 128.68 45.8485 128.812C45.8297 129.164 45.7911 129.515 45.716 129.856C45.6773 130.15 45.6023 130.425 45.4968 130.691C45.4874 130.737 45.478 130.775 45.4592 130.812C45.4592 130.823 45.4499 130.832 45.4499 130.842C45.3268 131.144 45.1837 131.438 45.0031 131.666C44.9762 131.704 44.9469 131.742 44.9187 131.77ZM47.4433 127.495C47.367 126.785 47.1865 126.093 46.8734 125.42C46.8441 125.373 46.8265 125.316 46.789 125.268C46.7116 125.097 46.6073 124.927 46.4947 124.756C46.4279 124.661 46.3611 124.566 46.2848 124.471C46.1711 124.339 46.0586 124.207 45.9237 124.073C45.8018 123.95 45.6587 123.837 45.4969 123.742C45.1276 123.505 44.6715 123.353 44.1978 123.362C43.5225 123.401 42.9444 123.761 42.5845 124.168C42.2034 124.586 41.9666 125.059 41.7767 125.524C41.7591 125.581 41.7298 125.647 41.7204 125.704C41.5117 126.264 41.3874 126.832 41.3206 127.4C41.283 127.742 41.2655 128.083 41.2655 128.425C41.2655 128.719 41.283 129.022 41.3124 129.316C41.3311 129.486 41.3499 129.657 41.378 129.837C41.4355 130.216 41.5304 130.605 41.6629 130.984C41.6922 131.097 41.7298 131.201 41.7767 131.316C41.8247 131.429 41.8716 131.534 41.9197 131.647C42.0909 131.997 42.2902 132.349 42.5845 132.671C42.9444 133.078 43.5225 133.448 44.1978 133.476C44.6715 133.486 45.1276 133.335 45.4969 133.097C45.6587 133.002 45.8018 132.89 45.9237 132.766C46.143 132.558 46.3329 132.33 46.4947 132.083C46.5416 132.017 46.5897 131.941 46.6272 131.865C46.7222 131.723 46.8066 131.571 46.8734 131.42C47.0259 131.097 47.149 130.765 47.2334 130.434C47.2721 130.311 47.3002 130.178 47.3295 130.055C47.4433 129.524 47.4902 128.974 47.4995 128.434V128.425C47.4995 128.112 47.4808 127.799 47.4433 127.495ZM47.4428 127.495C47.3666 126.785 47.186 126.093 46.873 125.42C46.8436 125.373 46.8261 125.316 46.7885 125.268L46.4169 125.306L45.4965 125.382L45.1553 125.411C45.2784 125.6 45.3745 125.809 45.4589 126.036C45.4777 126.073 45.4871 126.112 45.4965 126.16C45.6489 126.566 45.7532 127.012 45.8013 127.467C45.8294 127.656 45.8388 127.846 45.8482 128.045C45.8576 128.168 45.8576 128.302 45.8576 128.425C45.8576 128.558 45.8576 128.68 45.8482 128.812L46.2082 128.728L47.4897 128.434H47.4991V128.425C47.4991 128.112 47.4803 127.799 47.4428 127.495ZM47.4428 127.495C47.3666 126.785 47.186 126.093 46.873 125.42C46.8436 125.373 46.8261 125.316 46.7885 125.268L46.4169 125.306L45.4965 125.382L45.1553 125.411C45.2784 125.6 45.3745 125.809 45.4589 126.036C45.4777 126.073 45.4871 126.112 45.4965 126.16C45.6489 126.566 45.7532 127.012 45.8013 127.467C45.8294 127.656 45.8388 127.846 45.8482 128.045C45.8576 128.168 45.8576 128.302 45.8576 128.425C45.8576 128.558 45.8576 128.68 45.8482 128.812L46.2082 128.728L47.4897 128.434H47.4991V128.425C47.4991 128.112 47.4803 127.799 47.4428 127.495ZM47.4428 127.495C47.3666 126.785 47.186 126.093 46.873 125.42C46.8436 125.373 46.8261 125.316 46.7885 125.268L46.4169 125.306L45.4965 125.382L45.1553 125.411C45.2784 125.6 45.3745 125.809 45.4589 126.036C45.4777 126.073 45.4871 126.112 45.4965 126.16C45.6489 126.566 45.7532 127.012 45.8013 127.467C45.8294 127.656 45.8388 127.846 45.8482 128.045C45.8576 128.168 45.8576 128.302 45.8576 128.425C45.8576 128.558 45.8576 128.68 45.8482 128.812L46.2082 128.728L47.4897 128.434H47.4991V128.425C47.4991 128.112 47.4803 127.799 47.4428 127.495ZM47.4428 127.495C47.3666 126.785 47.186 126.093 46.873 125.42C46.8436 125.373 46.8261 125.316 46.7885 125.268L46.4169 125.306L45.4965 125.382L45.1553 125.411C45.2784 125.6 45.3745 125.809 45.4589 126.036C45.4777 126.073 45.4871 126.112 45.4965 126.16C45.6489 126.566 45.7532 127.012 45.8013 127.467C45.8294 127.656 45.8388 127.846 45.8482 128.045C45.8576 128.168 45.8576 128.302 45.8576 128.425C45.8576 128.558 45.8576 128.68 45.8482 128.812L46.2082 128.728L47.4897 128.434H47.4991V128.425C47.4991 128.112 47.4803 127.799 47.4428 127.495ZM47.4428 127.495C47.3666 126.785 47.186 126.093 46.873 125.42C46.8436 125.373 46.8261 125.316 46.7885 125.268L46.4169 125.306L45.4965 125.382L45.1553 125.411C45.2784 125.6 45.3745 125.809 45.4589 126.036C45.4777 126.073 45.4871 126.112 45.4965 126.16C45.6489 126.566 45.7532 127.012 45.8013 127.467C45.8294 127.656 45.8388 127.846 45.8482 128.045C45.8576 128.168 45.8576 128.302 45.8576 128.425C45.8576 128.558 45.8576 128.68 45.8482 128.812L46.2082 128.728L47.4897 128.434H47.4991V128.425C47.4991 128.112 47.4803 127.799 47.4428 127.495ZM47.4428 127.495C47.3666 126.785 47.186 126.093 46.873 125.42C46.8436 125.373 46.8261 125.316 46.7885 125.268L46.4169 125.306L45.4965 125.382L45.1553 125.411C45.2784 125.6 45.3745 125.809 45.4589 126.036C45.4777 126.073 45.4871 126.112 45.4965 126.16C45.6489 126.566 45.7532 127.012 45.8013 127.467C45.8294 127.656 45.8388 127.846 45.8482 128.045C45.8576 128.168 45.8576 128.302 45.8576 128.425C45.8576 128.558 45.8576 128.68 45.8482 128.812L46.2082 128.728L47.4897 128.434H47.4991V128.425C47.4991 128.112 47.4803 127.799 47.4428 127.495ZM45.1559 125.411C45.279 125.6 45.3751 125.809 45.4595 126.036C45.4783 126.073 45.4877 126.112 45.4971 126.16V125.382L45.1559 125.411ZM45.1559 125.411C45.279 125.6 45.3751 125.809 45.4595 126.036C45.4783 126.073 45.4877 126.112 45.4971 126.16V125.382L45.1559 125.411Z" fill="white"/>
<path id="Fill 63" fill-rule="evenodd" clip-rule="evenodd" d="M97.3759 84.2745L108.067 97.0864C109.285 98.5467 111.107 99.3711 113.009 99.3266L130.972 98.8851L134.198 98.8043C137.275 98.7293 140.357 98.7949 143.43 99.0045L155.646 99.8383C156.726 99.9121 157.203 98.5069 156.304 97.9061L136.838 84.7183C136.428 84.4408 135.981 84.2183 135.511 84.0625C132.566 83.5976 129.605 83.2182 126.64 82.9255C120.587 82.3212 114.501 82.0753 108.414 82.1842L98.2506 82.3657C97.2715 82.3856 96.7498 83.5239 97.3759 84.2745Z" fill="#4B4A61"/>
<path id="Fill 64" fill-rule="evenodd" clip-rule="evenodd" d="M50.6991 96.3905C50.6991 97.551 51.603 98.5124 52.7614 98.5861L65.3011 99.3777L79.1763 100.256L101.938 101.695C103.817 101.813 104.974 99.6845 103.855 98.1739L96.0178 87.6138C93.368 84.0434 89.181 81.9391 84.7315 81.9391H79.9935C77.3953 81.9391 74.8099 82.2553 72.2938 82.8806C71.7486 83.0141 71.2046 83.1664 70.6664 83.3315C66.0011 84.7566 59.0155 87.2696 53.6291 90.8329C51.7742 92.0601 50.6991 94.1691 50.6991 96.3905Z" fill="#4B4A61"/>
<path id="Fill 65" fill-rule="evenodd" clip-rule="evenodd" d="M87.7255 97.2219C87.9237 98.969 89.3506 100.378 91.1679 100.498L98.7175 100.995C98.8899 101.005 99.0388 100.874 99.0505 100.702L99.2416 97.7898C99.3753 95.7839 97.8534 94.0508 95.845 93.9185L89.7457 93.5192C88.7784 93.4524 87.9401 94.1515 87.8123 95.0965C87.8053 95.1387 87.8006 95.1808 87.7982 95.223L87.7079 96.5614C87.695 96.7851 87.6997 97.0064 87.7255 97.2219Z" fill="#CDDD39"/>
<path id="Fill 66" fill-rule="evenodd" clip-rule="evenodd" d="M98.8297 102.641C99.2987 104.074 104.184 109.151 109.091 109.105C113.999 109.058 117.271 106.657 111.978 104.255C106.685 101.852 101.937 101.695 101.937 101.695L98.8297 102.641Z" fill="#BDBDD1"/>
<path id="Fill 67" fill-rule="evenodd" clip-rule="evenodd" d="M88.1826 98.1916L99.1488 99.2174L101.246 102.344C101.484 102.699 101.23 103.174 100.803 103.174H100.592C99.9648 103.174 99.3516 102.989 98.8299 102.641C97.9282 102.041 96.8988 101.654 95.8225 101.515L90.6319 100.839C89.6763 100.714 88.8239 100.18 88.294 99.3778L87.8894 98.763C87.6831 98.5277 87.8707 98.1635 88.1826 98.1916Z" fill="#4B4A61"/>
<path id="Fill 68" fill-rule="evenodd" clip-rule="evenodd" d="M87.7255 97.2219L90.4328 97.3976C91.0167 97.4362 91.5232 96.9901 91.5607 96.4081C91.5642 96.3835 91.5642 96.3577 91.5642 96.3343C91.5642 95.7828 91.1316 95.3144 90.5723 95.2769L87.8123 95.0966C87.8053 95.1387 87.8006 95.1809 87.7982 95.223L87.7079 96.5615C87.695 96.7851 87.6997 97.0065 87.7255 97.2219Z" fill="#6C6C87"/>
<path id="Fill 69" fill-rule="evenodd" clip-rule="evenodd" d="M148.289 112.015V114.17C148.289 116.959 150.553 119.219 153.345 119.219H161.883C164.198 119.219 166.256 117.751 167.013 115.567L167.591 113.89L151.89 112.11C151.103 112.021 150.317 111.977 149.53 111.977C149.116 111.977 148.701 111.99 148.289 112.015Z" fill="#767689"/>
<path id="Fill 70" fill-rule="evenodd" clip-rule="evenodd" d="M97.3759 84.2745L108.067 97.0864C109.285 98.5467 111.107 99.3711 113.009 99.3266L130.972 98.8851C130.902 94.7749 130.131 88.4034 126.64 82.9255C120.587 82.3212 114.501 82.0753 108.414 82.1842L98.2506 82.3657C97.2715 82.3856 96.7498 83.5239 97.3759 84.2745Z" fill="#686880"/>
<path id="Fill 71" fill-rule="evenodd" clip-rule="evenodd" d="M65.3011 99.3775L79.1762 100.256L84.4864 81.9389H79.9935C77.3941 81.9389 74.8099 82.2551 72.2938 82.8804L65.3011 99.3775Z" fill="#5B5B73"/>
<path id="Fill 72" fill-rule="evenodd" clip-rule="evenodd" d="M193.628 118.865C193.628 119.973 194.527 120.871 195.636 120.871C196.744 120.871 197.644 119.973 197.644 118.865C197.644 117.758 196.744 116.859 195.636 116.859C194.527 116.859 193.628 117.758 193.628 118.865Z" fill="#D8D8E7"/>
<path id="Fill 73" fill-rule="evenodd" clip-rule="evenodd" d="M118.025 142.345L65.3133 136.099H65.304L63.1021 132.791C61.0819 129.73 61.2237 125.721 63.4632 122.81L67.8201 117.142C70.477 113.682 74.7002 111.786 79.0572 112.089L109.256 114.166C112.957 114.421 115.606 117.843 114.93 121.484L114.371 124.545C113.554 128.952 114.096 133.502 115.918 137.597L118.025 142.345Z" fill="#BDBDD1"/>
<path id="Fill 74" fill-rule="evenodd" clip-rule="evenodd" d="M118.025 142.345L65.3138 136.099H65.3044L63.1025 132.791C62.7426 132.251 62.4577 131.673 62.2396 131.085L115.407 136.326C115.558 136.754 115.728 137.18 115.918 137.597L118.025 142.345Z" fill="#B7B723"/>
<path id="Fill 75" fill-rule="evenodd" clip-rule="evenodd" d="M118.025 142.345L65.3137 136.099H65.3043L58.9752 135.35C56.3641 135.038 54.3439 132.914 54.1821 130.289L62.2394 131.085L115.407 136.327L116.497 136.431C116.763 138.393 117.257 140.374 118.025 142.345Z" fill="#C5CC2B"/>
<path id="Fill 76" fill-rule="evenodd" clip-rule="evenodd" d="M207.627 115.872C202.227 113.455 177.598 103.369 140.47 101.758H168.744L177.74 102.791C188.806 104.061 199.218 108.621 207.627 115.872Z" fill="#FEFEFE"/>
<path id="Fill 77" fill-rule="evenodd" clip-rule="evenodd" d="M137.007 83.9565C128.484 82.3171 110.414 80.2128 91.8217 80.2128C73.2203 80.2128 67.8762 82.8101 61.6796 85.0373C57.2383 86.6299 51.2398 90.8959 45.3833 94.2602C46.1055 93.8246 46.8548 93.3316 47.6239 92.7906C51.2105 90.2975 55.2357 87.7107 59.7145 85.4929C64.9919 82.8956 70.8848 80.8194 77.3955 80.0512C89.3068 78.6495 117.152 79.331 135.811 83.4448C136.239 83.5408 136.646 83.7106 137.007 83.9565Z" fill="white"/>
<path id="Fill 78" fill-rule="evenodd" clip-rule="evenodd" d="M37.7038 129.135L37.9395 130.539C37.9395 130.539 34.6343 129.832 32.5074 127.709C32.3186 127.52 32.1416 127.26 31.9645 126.93C33.8769 125.055 35.543 119.96 35.9568 118.298C36.4997 116.151 37.9395 113.803 31.7277 112.2C34.1723 112.117 37.5151 112.507 38.9666 114.995C38.1881 116.081 37.5749 117.412 37.1012 118.864C36.4282 120.891 36.121 123.026 36.2394 125.161C36.4528 128.818 37.7038 129.135 37.7038 129.135Z" fill="#C5CC2B"/>
</g>
</svg>
